# xmcd
#
# Track frame offsets:
#	150
#	14510
#	29592
#	44615
#	58115
#	77512
#	96067
#	110620
#	124142
#	140612
#	153027
#	167195
#	181030
#	198407
#	210297
#
# Disc length: 2981 seconds
#
# Revision: 1
# Processed by: cddbd v1.5.1PL0 Copyright (c) Steve Scherf et al.
# Submitted via: CDex 1.50Beta5
#
DISCID=c70ba30f
DTITLE=さまざまなアーティスト - スポ根パンク
DYEAR=1900
DGENRE=
TTITLE0=JINDOU/君は何かができる
TTITLE1=hybrid-180/行け行け飛雄馬
TTITLE2=京阪GIRL/アタックNo.1
TTITLE3=LODGER/燃えてヒーロー
TTITLE4=the sad sad planet/ミラクルガール
TTITLE5=PRODIGAL SONS/侍ジャイアンツ
TTITLE6=Small Kids Air/キン肉マン GO FIGHT!
TTITLE7=LOVE MODE/エースをねらえ!
TTITLE8=丑満刻/空手バカ一代
TTITLE9=SIDE LINE/行け!タイガーマスク
TTITLE10=SLEEPING SUB/ミラクルガール
TTITLE11=ナイチン×ギャル/赤き血のイレブン
TTITLE12=PRODIGAL SONS/タッチ
TTITLE13=丑満刻/がんばれドカベン
TTITLE14=アオゾラカンパニー!/夢を勝ちとろう
EXTD=
EXTT0=
EXTT1=
EXTT2=
EXTT3=
EXTT4=
EXTT5=
EXTT6=
EXTT7=
EXTT8=
EXTT9=
EXTT10=
EXTT11=
EXTT12=
EXTT13=
EXTT14=
PLAYORDER=
